STARTFONT 2.1
FONT -Bitstream-Dutch 801-Medium-R-Normal--8-80-75-75-P-62-DEC-DECmath_Symbol
SIZE 8 75 75
FONTBOUNDINGBOX 11 15 -1 -8

STARTPROPERTIES 26
FONTNAME_REGISTRY ""
FAMILY_NAME "Dutch 801"
FOUNDRY "Bitstream"
WEIGHT_NAME "Medium"
SETWIDTH_NAME "Normal"
SLANT "R"
ADD_STYLE_NAME ""
PIXEL_SIZE 8
POINT_SIZE 80
RESOLUTION_X 75
RESOLUTION_Y 75
SPACING "P"
AVERAGE_WIDTH 62
CHARSET_REGISTRY "DEC"
CHARSET_ENCODING "DECmath_Symbol"
CAP_HEIGHT 6
X_HEIGHT 0
CHARSET_COLLECTIONS "DEC-DECmath_Symbol"
FULL_NAME "Dutch 801 Roman DECmath_Symbol"
COPYRIGHT "Copyright 1989 by Bitstream, Inc.{and Digital Equipment Corp. All rights reserved."
NOTICE "Dutch 801 is a registered trademark of Bitstream, Inc."
WEIGHT 10
QUAD_WIDTH 5
DEFAULT_CHAR 32
FONT_DESCENT 8
FONT_ASCENT 7
ENDPROPERTIES

CHARS 128

STARTCHAR arrowleft
ENCODING 32
SWIDTH 1000 0
DWIDTH 8 0
BBX 7 3 1 1
BITMAP
40
FE
40
ENDCHAR

STARTCHAR arrowright
ENCODING 33
SWIDTH 1000 0
DWIDTH 8 0
BBX 7 3 1 1
BITMAP
04
FE
04
ENDCHAR

STARTCHAR arrowup
ENCODING 34
SWIDTH 500 0
DWIDTH 4 0
BBX 3 8 1 -2
BITMAP
40
E0
40
40
40
40
40
40
ENDCHAR

STARTCHAR arrowdown
ENCODING 35
SWIDTH 500 0
DWIDTH 4 0
BBX 3 8 1 -2
BITMAP
40
40
40
40
40
40
E0
40
ENDCHAR

STARTCHAR arrowboth
ENCODING 36
SWIDTH 1000 0
DWIDTH 8 0
BBX 7 3 1 1
BITMAP
44
FE
44
ENDCHAR

STARTCHAR arrownortheast
ENCODING 37
SWIDTH 1000 0
DWIDTH 8 0
BBX 7 7 1 -1
BITMAP
1E
06
0A
12
20
40
80
ENDCHAR

STARTCHAR arrowsoutheast
ENCODING 38
SWIDTH 1000 0
DWIDTH 8 0
BBX 7 7 1 -1
BITMAP
80
40
20
12
0A
06
1E
ENDCHAR

STARTCHAR similarequal
ENCODING 39
SWIDTH 1000 0
DWIDTH 8 0
BBX 6 4 1 1
BITMAP
64
98
00
FC
ENDCHAR

STARTCHAR arrowdblleft
ENCODING 40
SWIDTH 1000 0
DWIDTH 8 0
BBX 7 5 1 0
BITMAP
20
7E
80
7E
20
ENDCHAR

STARTCHAR arrowdblright
ENCODING 41
SWIDTH 1000 0
DWIDTH 8 0
BBX 7 5 1 0
BITMAP
08
FC
02
FC
08
ENDCHAR

STARTCHAR arrowdblup
ENCODING 42
SWIDTH 500 0
DWIDTH 4 0
BBX 5 8 0 -2
BITMAP
20
50
D8
50
50
50
50
50
ENDCHAR

STARTCHAR arrowdbldown
ENCODING 43
SWIDTH 500 0
DWIDTH 4 0
BBX 5 8 0 -2
BITMAP
50
50
50
50
50
D8
50
20
ENDCHAR

STARTCHAR arrowdblboth
ENCODING 44
SWIDTH 1000 0
DWIDTH 8 0
BBX 7 5 1 0
BITMAP
28
7C
82
7C
28
ENDCHAR

STARTCHAR arrownorthwest
ENCODING 45
SWIDTH 1000 0
DWIDTH 8 0
BBX 7 7 1 -1
BITMAP
F0
C0
A0
90
08
04
02
ENDCHAR

STARTCHAR arrowsouthwest
ENCODING 46
SWIDTH 1000 0
DWIDTH 8 0
BBX 7 7 1 -1
BITMAP
02
04
08
90
A0
C0
F0
ENDCHAR

STARTCHAR proportional
ENCODING 47
SWIDTH 1000 0
DWIDTH 8 0
BBX 5 4 2 1
BITMAP
68
90
90
68
ENDCHAR

STARTCHAR prime
ENCODING 48
SWIDTH 278 0
DWIDTH 2 0
BBX 2 4 0 1
BITMAP
40
40
80
80
ENDCHAR

STARTCHAR infinity
ENCODING 49
SWIDTH 833 0
DWIDTH 7 0
BBX 6 4 1 1
BITMAP
68
94
A4
58
ENDCHAR

STARTCHAR element
ENCODING 50
SWIDTH 1000 0
DWIDTH 8 0
BBX 5 5 2 0
BITMAP
78
80
F8
80
78
ENDCHAR

STARTCHAR suchthat
ENCODING 51
SWIDTH 1000 0
DWIDTH 8 0
BBX 5 5 2 0
BITMAP
F0
08
F8
08
F0
ENDCHAR

STARTCHAR trianglelgup
ENCODING 52
SWIDTH 1000 0
DWIDTH 8 0
BBX 6 6 1 0
BITMAP
10
30
48
48
84
FC
ENDCHAR

STARTCHAR trianglelgdown
ENCODING 53
SWIDTH 1000 0
DWIDTH 8 0
BBX 6 6 1 -1
BITMAP
FC
84
48
48
30
10
ENDCHAR

STARTCHAR slashnegate
ENCODING 54
SWIDTH 0 0
DWIDTH 4 0
BBX 3 8 1 -2
BITMAP
20
20
40
40
40
40
80
80
ENDCHAR

STARTCHAR mapsto
ENCODING 55
SWIDTH 0 0
DWIDTH 1 0
BBX 2 3 0 1
BITMAP
80
C0
80
ENDCHAR

STARTCHAR universal
ENCODING 56
SWIDTH 637 0
DWIDTH 5 0
BBX 5 6 0 0
BITMAP
88
88
70
50
50
20
ENDCHAR

STARTCHAR existential
ENCODING 57
SWIDTH 639 0
DWIDTH 5 0
BBX 4 6 1 0
BITMAP
F0
10
F0
10
10
F0
ENDCHAR

STARTCHAR logicalnot
ENCODING 58
SWIDTH 833 0
DWIDTH 7 0
BBX 5 2 1 1
BITMAP
F8
08
ENDCHAR

STARTCHAR emptyset
ENCODING 59
SWIDTH 500 0
DWIDTH 4 0
BBX 4 7 0 -1
BITMAP
10
60
90
90
90
60
80
ENDCHAR

STARTCHAR Rfraktur
ENCODING 60
SWIDTH 794 0
DWIDTH 6 0
BBX 6 7 0 -1
BITMAP
10
68
A4
B8
28
A8
4C
ENDCHAR

STARTCHAR Ifraktur
ENCODING 61
SWIDTH 699 0
DWIDTH 6 0
BBX 5 7 1 -1
BITMAP
60
98
20
10
48
A8
30
ENDCHAR

STARTCHAR latticetop
ENCODING 62
SWIDTH 778 0
DWIDTH 6 0
BBX 5 5 1 0
BITMAP
F8
20
20
20
20
ENDCHAR

STARTCHAR latticebot
ENCODING 63
SWIDTH 778 0
DWIDTH 6 0
BBX 5 5 1 0
BITMAP
20
20
20
20
F8
ENDCHAR

STARTCHAR aleph
ENCODING 64
SWIDTH 602 0
DWIDTH 5 0
BBX 4 6 1 0
BITMAP
90
D0
60
A0
B0
90
ENDCHAR

STARTCHAR Acursive
ENCODING 65
SWIDTH 630 0
DWIDTH 5 0
BBX 6 7 -1 -1
BITMAP
08
18
28
38
28
4C
C0
ENDCHAR

STARTCHAR Bcursive
ENCODING 66
SWIDTH 613 0
DWIDTH 5 0
BBX 5 6 0 0
BITMAP
30
C8
50
68
88
B0
ENDCHAR

STARTCHAR Ccursive
ENCODING 67
SWIDTH 546 0
DWIDTH 5 0
BBX 4 6 0 0
BITMAP
30
50
40
80
90
E0
ENDCHAR

STARTCHAR Dcursive
ENCODING 68
SWIDTH 722 0
DWIDTH 6 0
BBX 6 6 0 0
BITMAP
78
A4
24
44
48
F0
ENDCHAR

STARTCHAR Ecursive
ENCODING 69
SWIDTH 535 0
DWIDTH 4 0
BBX 4 6 0 0
BITMAP
30
40
60
80
90
60
ENDCHAR

STARTCHAR Fcursive
ENCODING 70
SWIDTH 558 0
DWIDTH 5 0
BBX 5 6 0 0
BITMAP
78
90
70
20
A0
C0
ENDCHAR

STARTCHAR Gcursive
ENCODING 71
SWIDTH 595 0
DWIDTH 5 0
BBX 5 7 0 -1
BITMAP
38
48
40
98
90
70
20
ENDCHAR

STARTCHAR Hcursive
ENCODING 72
SWIDTH 722 0
DWIDTH 6 0
BBX 7 6 -1 0
BITMAP
32
14
24
3C
48
CC
ENDCHAR

STARTCHAR Icursive
ENCODING 73
SWIDTH 431 0
DWIDTH 4 0
BBX 4 6 0 0
BITMAP
30
10
20
20
A0
40
ENDCHAR

STARTCHAR Jcursive
ENCODING 74
SWIDTH 475 0
DWIDTH 4 0
BBX 4 7 0 -1
BITMAP
30
50
10
20
20
A0
C0
ENDCHAR

STARTCHAR Kcursive
ENCODING 75
SWIDTH 676 0
DWIDTH 6 0
BBX 6 6 0 0
BITMAP
64
28
50
60
50
98
ENDCHAR

STARTCHAR Lcursive
ENCODING 76
SWIDTH 602 0
DWIDTH 5 0
BBX 6 7 -1 -1
BITMAP
0C
14
20
20
40
A4
18
ENDCHAR

STARTCHAR Mcursive
ENCODING 77
SWIDTH 896 0
DWIDTH 7 0
BBX 8 7 -1 -1
BITMAP
32
12
16
2A
2A
AB
C0
ENDCHAR

STARTCHAR Ncursive
ENCODING 78
SWIDTH 722 0
DWIDTH 6 0
BBX 7 7 -1 -1
BITMAP
36
12
2A
2A
2C
48
C0
ENDCHAR

STARTCHAR Ocursive
ENCODING 79
SWIDTH 671 0
DWIDTH 6 0
BBX 6 6 0 0
BITMAP
38
44
44
88
88
70
ENDCHAR

STARTCHAR Pcursive
ENCODING 80
SWIDTH 593 0
DWIDTH 5 0
BBX 5 6 0 0
BITMAP
50
68
48
70
80
C0
ENDCHAR

STARTCHAR Qcursive
ENCODING 81
SWIDTH 676 0
DWIDTH 6 0
BBX 6 7 0 -1
BITMAP
38
44
44
68
30
C4
38
ENDCHAR

STARTCHAR Rcursive
ENCODING 82
SWIDTH 662 0
DWIDTH 5 0
BBX 5 6 0 0
BITMAP
D8
68
48
70
A0
98
ENDCHAR

STARTCHAR Scursive
ENCODING 83
SWIDTH 523 0
DWIDTH 4 0
BBX 5 6 -1 0
BITMAP
38
48
60
30
90
E0
ENDCHAR

STARTCHAR Tcursive
ENCODING 84
SWIDTH 650 0
DWIDTH 5 0
BBX 5 6 0 0
BITMAP
F8
20
40
80
90
60
ENDCHAR

STARTCHAR Ucursive
ENCODING 85
SWIDTH 699 0
DWIDTH 6 0
BBX 6 6 0 0
BITMAP
64
28
48
90
B0
D8
ENDCHAR

STARTCHAR Vcursive
ENCODING 86
SWIDTH 569 0
DWIDTH 5 0
BBX 5 6 0 0
BITMAP
C8
48
50
90
A0
C0
ENDCHAR

STARTCHAR Wcursive
ENCODING 87
SWIDTH 792 0
DWIDTH 7 0
BBX 7 6 0 0
BITMAP
CA
52
94
A4
A8
D0
ENDCHAR

STARTCHAR Xcursive
ENCODING 88
SWIDTH 722 0
DWIDTH 6 0
BBX 7 6 -1 0
BITMAP
32
56
18
10
AA
CC
ENDCHAR

STARTCHAR Ycursive
ENCODING 89
SWIDTH 625 0
DWIDTH 5 0
BBX 6 8 -1 -2
BITMAP
64
24
28
48
50
60
20
C0
ENDCHAR

STARTCHAR Zcursive
ENCODING 90
SWIDTH 588 0
DWIDTH 5 0
BBX 6 7 -1 -1
BITMAP
3C
08
10
20
40
A4
18
ENDCHAR

STARTCHAR union
ENCODING 91
SWIDTH 1000 0
DWIDTH 8 0
BBX 5 5 2 0
BITMAP
88
88
88
88
70
ENDCHAR

STARTCHAR intersection
ENCODING 92
SWIDTH 1000 0
DWIDTH 8 0
BBX 5 5 2 0
BITMAP
70
88
88
88
88
ENDCHAR

STARTCHAR unionmultiset
ENCODING 93
SWIDTH 1000 0
DWIDTH 8 0
BBX 5 5 2 0
BITMAP
A8
F8
A8
88
70
ENDCHAR

STARTCHAR logicaland
ENCODING 94
SWIDTH 1000 0
DWIDTH 8 0
BBX 6 6 1 -1
BITMAP
20
30
48
48
84
84
ENDCHAR

STARTCHAR logicalor
ENCODING 95
SWIDTH 1000 0
DWIDTH 8 0
BBX 6 6 1 -1
BITMAP
84
84
48
48
30
20
ENDCHAR

STARTCHAR turnstileleft
ENCODING 96
SWIDTH 611 0
DWIDTH 5 0
BBX 4 5 1 0
BITMAP
80
80
F0
80
80
ENDCHAR

STARTCHAR turnstileright
ENCODING 97
SWIDTH 611 0
DWIDTH 5 0
BBX 4 5 1 0
BITMAP
10
10
F0
10
10
ENDCHAR

STARTCHAR bracketleftbt
ENCODING 98
SWIDTH 528 0
DWIDTH 4 0
BBX 2 8 1 -2
BITMAP
80
80
80
80
80
80
80
C0
ENDCHAR

STARTCHAR bracketrightbt
ENCODING 99
SWIDTH 528 0
DWIDTH 4 0
BBX 2 8 1 -2
BITMAP
40
40
40
40
40
40
40
C0
ENDCHAR

STARTCHAR bracketlefttp
ENCODING 100
SWIDTH 528 0
DWIDTH 4 0
BBX 2 8 1 -2
BITMAP
C0
80
80
80
80
80
80
80
ENDCHAR

STARTCHAR bracketrighttp
ENCODING 101
SWIDTH 528 0
DWIDTH 4 0
BBX 2 8 1 -2
BITMAP
C0
40
40
40
40
40
40
40
ENDCHAR

STARTCHAR braceleft
ENCODING 102
SWIDTH 500 0
DWIDTH 4 0
BBX 3 8 0 -2
BITMAP
20
40
40
80
40
40
40
20
ENDCHAR

STARTCHAR braceright
ENCODING 103
SWIDTH 500 0
DWIDTH 4 0
BBX 3 8 1 -2
BITMAP
80
40
40
20
40
40
40
80
ENDCHAR

STARTCHAR angleleft
ENCODING 104
SWIDTH 333 0
DWIDTH 3 0
BBX 3 9 0 -2
BITMAP
20
20
40
40
80
40
40
20
20
ENDCHAR

STARTCHAR angleright
ENCODING 105
SWIDTH 333 0
DWIDTH 3 0
BBX 3 9 0 -2
BITMAP
80
80
40
40
20
40
40
80
80
ENDCHAR

STARTCHAR bar
ENCODING 106
SWIDTH 602 0
DWIDTH 5 0
BBX 1 8 2 -2
BITMAP
80
80
80
80
80
80
80
80
ENDCHAR

STARTCHAR bardbl
ENCODING 107
SWIDTH 1000 0
DWIDTH 8 0
BBX 3 8 3 -2
BITMAP
A0
A0
A0
A0
A0
A0
A0
A0
ENDCHAR

STARTCHAR arrowupdown
ENCODING 108
SWIDTH 500 0
DWIDTH 4 0
BBX 3 9 1 -3
BITMAP
40
40
E0
40
40
40
E0
40
40
ENDCHAR

STARTCHAR arrowdblupdown
ENCODING 109
SWIDTH 500 0
DWIDTH 4 0
BBX 5 8 0 -2
BITMAP
20
50
D8
50
50
D8
50
20
ENDCHAR

STARTCHAR backslash
ENCODING 110
SWIDTH 500 0
DWIDTH 4 0
BBX 3 8 1 -2
BITMAP
80
80
40
40
40
40
20
20
ENDCHAR

STARTCHAR wreathproduct
ENCODING 111
SWIDTH 278 0
DWIDTH 2 0
BBX 3 5 0 -1
BITMAP
C0
20
40
80
60
ENDCHAR

STARTCHAR radical
ENCODING 112
SWIDTH 1000 0
DWIDTH 8 0
BBX 8 8 0 -8
BITMAP
01
01
62
A2
14
14
08
08
ENDCHAR

STARTCHAR coproduct
ENCODING 113
SWIDTH 768 0
DWIDTH 6 0
BBX 6 5 0 0
BITMAP
48
48
48
48
FC
ENDCHAR

STARTCHAR gradient
ENCODING 114
SWIDTH 713 0
DWIDTH 6 0
BBX 6 5 0 0
BITMAP
FC
84
48
30
10
ENDCHAR

STARTCHAR integral
ENCODING 115
SWIDTH 274 0
DWIDTH 2 0
BBX 3 8 0 -2
BITMAP
20
40
40
40
40
40
40
80
ENDCHAR

STARTCHAR unionsqr
ENCODING 116
SWIDTH 1000 0
DWIDTH 8 0
BBX 5 5 2 0
BITMAP
88
88
88
88
F8
ENDCHAR

STARTCHAR intersectsqr
ENCODING 117
SWIDTH 1000 0
DWIDTH 8 0
BBX 5 5 2 0
BITMAP
F8
88
88
88
88
ENDCHAR

STARTCHAR reflsubsetsq
ENCODING 118
SWIDTH 1000 0
DWIDTH 8 0
BBX 5 7 2 -2
BITMAP
F8
80
80
80
F8
00
F8
ENDCHAR

STARTCHAR reflsupersetsq
ENCODING 119
SWIDTH 1000 0
DWIDTH 8 0
BBX 5 7 2 -2
BITMAP
F8
08
08
08
F8
00
F8
ENDCHAR

STARTCHAR section
ENCODING 120
SWIDTH 500 0
DWIDTH 4 0
BBX 3 7 1 -1
BITMAP
60
80
40
A0
40
20
C0
ENDCHAR

STARTCHAR dagger
ENCODING 121
SWIDTH 500 0
DWIDTH 4 0
BBX 3 7 1 -1
BITMAP
40
E0
40
40
40
40
40
ENDCHAR

STARTCHAR daggerdbl
ENCODING 122
SWIDTH 500 0
DWIDTH 4 0
BBX 3 7 1 -1
BITMAP
40
E0
40
40
40
E0
40
ENDCHAR

STARTCHAR paragraph
ENCODING 123
SWIDTH 500 0
DWIDTH 4 0
BBX 5 7 0 -1
BITMAP
78
D0
D0
50
50
50
50
ENDCHAR

STARTCHAR clubsuit
ENCODING 124
SWIDTH 1150 0
DWIDTH 10 0
BBX 9 8 1 -2
BITMAP
0800
1C00
1C00
6B00
FF80
6B00
0800
1C00
ENDCHAR

STARTCHAR diamondsuit
ENCODING 125
SWIDTH 1148 0
DWIDTH 10 0
BBX 8 7 1 -1
BITMAP
18
24
42
81
42
24
18
ENDCHAR

STARTCHAR heartsuit
ENCODING 126
SWIDTH 1147 0
DWIDTH 10 0
BBX 8 7 1 -1
BITMAP
66
99
81
81
42
24
18
ENDCHAR

STARTCHAR spadesuit
ENCODING 127
SWIDTH 1148 0
DWIDTH 10 0
BBX 7 8 2 -2
BITMAP
10
38
7C
FE
FE
D6
10
38
ENDCHAR

STARTCHAR minus
ENCODING 160
SWIDTH 833 0
DWIDTH 7 0
BBX 5 1 1 2
BITMAP
F8
ENDCHAR

STARTCHAR dotmath
ENCODING 161
SWIDTH 572 0
DWIDTH 5 0
BBX 1 1 2 2
BITMAP
80
ENDCHAR

STARTCHAR multiply
ENCODING 162
SWIDTH 833 0
DWIDTH 7 0
BBX 5 5 1 0
BITMAP
88
50
20
50
88
ENDCHAR

STARTCHAR asteriskmath
ENCODING 163
SWIDTH 1000 0
DWIDTH 8 0
BBX 5 5 2 0
BITMAP
20
A8
70
A8
20
ENDCHAR

STARTCHAR divide
ENCODING 164
SWIDTH 833 0
DWIDTH 7 0
BBX 5 5 1 0
BITMAP
20
00
F8
00
20
ENDCHAR

STARTCHAR diamondop
ENCODING 165
SWIDTH 500 0
DWIDTH 4 0
BBX 4 4 0 0
BITMAP
60
90
90
60
ENDCHAR

STARTCHAR plusminus
ENCODING 166
SWIDTH 833 0
DWIDTH 7 0
BBX 5 6 1 0
BITMAP
20
20
F8
20
20
F8
ENDCHAR

STARTCHAR minusplus
ENCODING 167
SWIDTH 833 0
DWIDTH 7 0
BBX 5 6 1 0
BITMAP
F8
20
20
F8
20
20
ENDCHAR

STARTCHAR circleplus
ENCODING 168
SWIDTH 1000 0
DWIDTH 8 0
BBX 6 6 1 -1
BITMAP
78
94
FC
94
94
78
ENDCHAR

STARTCHAR circleminus
ENCODING 169
SWIDTH 1000 0
DWIDTH 8 0
BBX 6 6 1 -1
BITMAP
78
84
FC
84
84
78
ENDCHAR

STARTCHAR circlemultiply
ENCODING 170
SWIDTH 1000 0
DWIDTH 8 0
BBX 6 6 1 -1
BITMAP
78
CC
B4
B4
CC
78
ENDCHAR

STARTCHAR circledivide
ENCODING 171
SWIDTH 1000 0
DWIDTH 8 0
BBX 6 6 1 -1
BITMAP
78
8C
94
A4
C4
78
ENDCHAR

STARTCHAR circledot
ENCODING 172
SWIDTH 1000 0
DWIDTH 8 0
BBX 6 6 1 -1
BITMAP
78
84
B4
B4
84
78
ENDCHAR

STARTCHAR overlaycircle
ENCODING 173
SWIDTH 1000 0
DWIDTH 8 0
BBX 8 8 0 -2
BITMAP
18
66
42
81
81
42
66
18
ENDCHAR

STARTCHAR circleop
ENCODING 174
SWIDTH 500 0
DWIDTH 4 0
BBX 4 3 0 1
BITMAP
60
90
60
ENDCHAR

STARTCHAR bullet
ENCODING 175
SWIDTH 500 0
DWIDTH 4 0
BBX 4 3 0 1
BITMAP
60
F0
60
ENDCHAR

STARTCHAR hardyequiv
ENCODING 176
SWIDTH 1000 0
DWIDTH 8 0
BBX 5 5 2 0
BITMAP
88
70
00
70
88
ENDCHAR

STARTCHAR equivalence
ENCODING 177
SWIDTH 1000 0
DWIDTH 8 0
BBX 5 5 2 0
BITMAP
F8
00
F8
00
F8
ENDCHAR

STARTCHAR reflexsubset
ENCODING 178
SWIDTH 1000 0
DWIDTH 8 0
BBX 5 7 2 -2
BITMAP
78
80
80
80
78
00
F8
ENDCHAR

STARTCHAR reflexsuperset
ENCODING 179
SWIDTH 1000 0
DWIDTH 8 0
BBX 5 7 2 -2
BITMAP
F0
08
08
08
F0
00
F8
ENDCHAR

STARTCHAR lessequal
ENCODING 180
SWIDTH 1000 0
DWIDTH 8 0
BBX 5 5 2 0
BITMAP
38
C0
38
00
F8
ENDCHAR

STARTCHAR greaterequal
ENCODING 181
SWIDTH 1000 0
DWIDTH 8 0
BBX 5 5 2 0
BITMAP
E0
18
E0
00
F8
ENDCHAR

STARTCHAR precedesequal
ENCODING 182
SWIDTH 1000 0
DWIDTH 8 0
BBX 5 6 2 0
BITMAP
08
10
E0
10
08
F8
ENDCHAR

STARTCHAR followsequal
ENCODING 183
SWIDTH 1000 0
DWIDTH 8 0
BBX 5 6 2 0
BITMAP
80
40
38
40
80
F8
ENDCHAR

STARTCHAR similar
ENCODING 184
SWIDTH 1000 0
DWIDTH 8 0
BBX 6 2 1 2
BITMAP
64
98
ENDCHAR

STARTCHAR approxequal
ENCODING 185
SWIDTH 1000 0
DWIDTH 8 0
BBX 6 5 1 0
BITMAP
64
98
00
64
98
ENDCHAR

STARTCHAR propersubset
ENCODING 186
SWIDTH 1000 0
DWIDTH 8 0
BBX 5 5 2 0
BITMAP
78
80
80
80
78
ENDCHAR

STARTCHAR propersuperset
ENCODING 187
SWIDTH 1000 0
DWIDTH 8 0
BBX 5 5 2 0
BITMAP
F0
08
08
08
F0
ENDCHAR

STARTCHAR muchless
ENCODING 188
SWIDTH 1000 0
DWIDTH 8 0
BBX 6 5 1 0
BITMAP
24
48
90
48
24
ENDCHAR

STARTCHAR muchgreater
ENCODING 189
SWIDTH 1000 0
DWIDTH 8 0
BBX 6 5 1 0
BITMAP
90
48
24
48
90
ENDCHAR

STARTCHAR precedes
ENCODING 190
SWIDTH 1000 0
DWIDTH 8 0
BBX 5 5 2 0
BITMAP
08
10
E0
10
08
ENDCHAR

STARTCHAR follows
ENCODING 191
SWIDTH 1000 0
DWIDTH 8 0
BBX 5 5 2 0
BITMAP
80
40
38
40
80
ENDCHAR
ENDFONT
